<?xml version="1.0" encoding="iso-8859-1"?>
<!-- Generator: Adobe Illustrator 19.0.0, SVG Export Plug-In . SVG Version: 6.00 Build 0)  -->
<svg version="1.1" id="Capa_1" xmlns="http://www.w3.org/2000/svg" xmlns:xlink="http://www.w3.org/1999/xlink" x="0px" y="0px"
	 viewBox="0 0 182.089 182.089" style="enable-background:new 0 0 182.089 182.089;" xml:space="preserve">
<g>
	<g>
		<g>
			<polygon style="fill:#D5742A;" points="37.958,182.089 91.198,169.062 57.962,144.755 37.958,146.523 			"/>
			<g>
				<path style="fill:#AC5918;" d="M37.958,146.523c-10.273,0.486-18.853,8.262-18.853,17.783c0,9.52,8.58,17.295,18.853,17.783
					V146.523z"/>
				<path style="fill:#AC5918;" d="M37.958,146.523c10.271,0.486,18.027,8.262,18.027,17.783c0,9.52-7.756,17.295-18.027,17.783
					V146.523z"/>
			</g>
			<g>
				<g>
					<path style="fill:#FDBEBD;" d="M47.899,168.808c0,5.285-4.656,9.568-9.941,9.568s-9.195-4.283-9.195-9.568
						c0-5.285,3.91-9.568,9.195-9.568S47.899,163.523,47.899,168.808z"/>
					<path style="fill:#FDBEBD;" d="M42.583,153.569c0,2.348-2.277,4.252-4.625,4.252c-2.35,0-3.881-1.904-3.881-4.252
						c0-2.35,1.531-4.254,3.881-4.254C40.305,149.316,42.583,151.22,42.583,153.569z"/>
					<g>
						<circle style="fill:#FDBEBD;" cx="27.699" cy="156.403" r="4.253"/>
						<circle style="fill:#FDBEBD;" cx="48.962" cy="156.403" r="4.252"/>
					</g>
				</g>
				<g>
					<path style="fill:#FFABAB;" d="M37.958,159.239c-0.17,0,0.166,0.018,0,0.025v19.086c0.166,0.008-0.17,0.025,0,0.025
						c5.285,0,9.941-4.283,9.941-9.568C47.899,163.523,43.243,159.239,37.958,159.239z"/>
					<path style="fill:#FFABAB;" d="M37.958,149.316c-0.172,0,0.166,0.031,0,0.051v8.404c0.166,0.02-0.172,0.051,0,0.051
						c2.348,0,4.625-1.904,4.625-4.252C42.583,151.22,40.305,149.316,37.958,149.316z"/>
					<g>
						<circle style="fill:#FFABAB;" cx="48.962" cy="156.403" r="4.252"/>
					</g>
				</g>
			</g>
		</g>
		<g>
			<polygon style="fill:#E8C0A3;" points="142.231,182.089 88.577,169.062 121.813,144.755 142.231,146.523 			"/>
			<g>
				<path style="fill:#FFE5B5;" d="M144.421,146.523c-10.273,0.486-18.316,8.262-18.316,17.783c0,9.52,8.043,17.295,18.316,17.783
					V146.523z"/>
				<path style="fill:#FFD5B3;" d="M144.421,146.523c10.273,0.486,18.564,8.262,18.564,17.783c0,9.52-8.291,17.295-18.564,17.783
					V146.523z"/>
			</g>
			<g>
				<g>
					<path style="fill:#FDBEBD;" d="M154.114,169.308c0,5.285-4.408,9.568-9.693,9.568c-5.285,0-9.443-4.283-9.443-9.568
						c0-5.285,4.158-9.568,9.443-9.568C149.706,159.739,154.114,164.023,154.114,169.308z"/>
					<path style="fill:#FDBEBD;" d="M148.797,154.069c0,2.348-2.029,4.252-4.377,4.252c-2.35,0-4.129-1.904-4.129-4.252
						c0-2.35,1.779-4.254,4.129-4.254C146.768,149.816,148.797,151.72,148.797,154.069z"/>
					<g>
						<circle style="fill:#FDBEBD;" cx="133.914" cy="156.903" r="4.253"/>
						<circle style="fill:#FDBEBD;" cx="155.176" cy="156.903" r="4.252"/>
					</g>
				</g>
				<g>
					<path style="fill:#FFABAB;" d="M144.421,159.739c-0.17,0,0.166,0.018,0,0.025v19.086c0.166,0.008-0.17,0.025,0,0.025
						c5.285,0,9.693-4.283,9.693-9.568C154.114,164.023,149.706,159.739,144.421,159.739z"/>
					<path style="fill:#FFABAB;" d="M144.421,149.816c-0.172,0,0.166,0.031,0,0.051v8.404c0.166,0.02-0.172,0.051,0,0.051
						c2.348,0,4.377-1.904,4.377-4.252C148.797,151.72,146.768,149.816,144.421,149.816z"/>
					<g>
						<circle style="fill:#FFABAB;" cx="155.176" cy="156.903" r="4.252"/>
					</g>
				</g>
			</g>
		</g>
	</g>
	<g>
		<g>
			<path style="fill:#FFD5B3;" d="M89.544,82.478c-16.932,0.758-33.738,11.889-33.662,32.391l0.154,22.713
				c0.08,21.309,16.572,31.488,33.508,31.48V82.478z"/>
			<path style="fill:#E8C0A3;" d="M89.544,82.478c16.938,0.629,33.434,11.635,33.512,32.137l0.152,22.711
				c0.08,21.311-16.727,31.615-33.664,31.736V82.478z"/>
		</g>
	</g>
	<g>
		<path style="fill:#FFFBF5;" d="M89.544,102.489c-13.609,0.828-24.428,14.014-24.428,30.158c0,16.145,10.818,29.332,24.428,30.158
			V102.489z"/>
		<path style="fill:#F4E8D7;" d="M89.546,102.489c13.609,0.828,24.428,14.014,24.428,30.158c0,16.145-10.818,29.332-24.428,30.158
			V102.489z"/>
	</g>
	<g>
		<g>
			<path style="fill:#FFE5B5;" d="M54.51,89.349c-10.273,0.486-18.314,8.262-18.314,17.783c0,9.52,8.041,17.297,18.314,17.783
				V89.349z"/>
			<path style="fill:#FFD5B3;" d="M54.51,89.349c10.273,0.486,18.564,8.262,18.564,17.783c0,9.52-8.291,17.297-18.564,17.783V89.349
				z"/>
		</g>
		<g>
			<path style="fill:#AC5918;" d="M124.331,89.349c-10.273,0.486-18.314,8.262-18.314,17.783c0,9.52,8.041,17.297,18.314,17.783
				V89.349z"/>
			<path style="fill:#91430F;" d="M124.331,89.349c10.271,0.486,18.564,8.262,18.564,17.783c0,9.52-8.293,17.297-18.564,17.783
				V89.349z"/>
		</g>
		<g>
			<g>
				<path style="fill:#FDBEBD;" d="M64.204,111.808c0,5.285-4.408,9.568-9.693,9.568c-5.285,0-9.443-4.283-9.443-9.568
					c0-5.285,4.158-9.568,9.443-9.568C59.796,102.239,64.204,106.523,64.204,111.808z"/>
				<path style="fill:#FDBEBD;" d="M58.889,96.569c0,2.348-2.029,4.252-4.379,4.252c-2.348,0-4.127-1.904-4.127-4.252
					c0-2.35,1.779-4.254,4.127-4.254C56.86,92.316,58.889,94.22,58.889,96.569z"/>
				<g>
					<circle style="fill:#FDBEBD;" cx="44.004" cy="99.403" r="4.252"/>
					<circle style="fill:#FDBEBD;" cx="65.267" cy="99.403" r="4.253"/>
				</g>
			</g>
			<g>
				<path style="fill:#FFABAB;" d="M54.51,102.239c-0.168,0,0.168,0.018,0,0.025v19.086c0.168,0.008-0.168,0.025,0,0.025
					c5.285,0,9.693-4.283,9.693-9.568C64.204,106.523,59.796,102.239,54.51,102.239z"/>
				<path style="fill:#FFABAB;" d="M54.51,92.316c-0.17,0,0.166,0.031,0,0.051v8.404c0.166,0.02-0.17,0.051,0,0.051
					c2.35,0,4.379-1.904,4.379-4.252C58.889,94.22,56.86,92.316,54.51,92.316z"/>
				<g>
					<circle style="fill:#FFABAB;" cx="65.267" cy="99.403" r="4.253"/>
				</g>
			</g>
		</g>
		<g>
			<g>
				<path style="fill:#FDBEBD;" d="M134.024,111.808c0,5.285-4.41,9.568-9.693,9.568c-5.285,0-9.443-4.283-9.443-9.568
					c0-5.285,4.158-9.568,9.443-9.568C129.614,102.239,134.024,106.523,134.024,111.808z"/>
				<path style="fill:#FDBEBD;" d="M128.708,96.569c0,2.348-2.029,4.252-4.377,4.252c-2.35,0-4.129-1.904-4.129-4.252
					c0-2.35,1.779-4.254,4.129-4.254C126.678,92.316,128.708,94.22,128.708,96.569z"/>
				<g>
					<circle style="fill:#FDBEBD;" cx="113.824" cy="99.403" r="4.253"/>
					<circle style="fill:#FDBEBD;" cx="135.086" cy="99.403" r="4.253"/>
				</g>
			</g>
			<g>
				<path style="fill:#FFABAB;" d="M124.331,102.239c-0.17,0,0.166,0.018,0,0.025v19.086c0.166,0.008-0.17,0.025,0,0.025
					c5.283,0,9.693-4.283,9.693-9.568C134.024,106.523,129.614,102.239,124.331,102.239z"/>
				<path style="fill:#FFABAB;" d="M124.331,92.316c-0.172,0,0.166,0.031,0,0.051v8.404c0.166,0.02-0.172,0.051,0,0.051
					c2.348,0,4.377-1.904,4.377-4.252C128.708,94.22,126.678,92.316,124.331,92.316z"/>
				<g>
					<circle style="fill:#FFABAB;" cx="135.086" cy="99.403" r="4.253"/>
				</g>
			</g>
		</g>
	</g>
	<g>
		<g>
			<path style="fill:#D5742A;" d="M37.856,0.015c-2.205,37.497,8.822,39.703,8.822,39.703l27.572-24.263
				C57.708-1.088,37.856,0.015,37.856,0.015z"/>
			<path style="fill:#AC5918;" d="M141.233,0.015c2.207,37.497-8.822,39.703-8.822,39.703l-27.57-24.263
				C121.383-1.088,141.233,0.015,141.233,0.015z"/>
		</g>
		<g>
			<path style="fill:#FFE5B5;" d="M89.546,9.95C63.93,10.141,43.042,30.139,43.042,54.792c0,24.653,20.889,44.651,46.504,44.842
				V9.95z"/>
			<path style="fill:#FFD5B3;" d="M89.546,9.95c25.615,0.191,46.504,20.189,46.504,44.842c0,24.653-20.889,44.651-46.504,44.842
				V9.95z"/>
			<path style="fill:#D5742A;" d="M103.256,13.908c0.51,1.179,1.021,2.357,1.553,3.527c2.877,6.33,5.857,12.592,9.439,18.561
				c1.945,3.239,3.963,6.436,6.154,9.515c0.262,0.368,2.742,3.67,2.289,3.147c0.697,0.877,1.393,1.756,2.115,2.611
				c3.303,3.905,6.801,7.659,10.553,11.141c0.445-2.478,0.689-5.02,0.689-7.619c0-20.339-14.223-37.498-33.584-42.991
				C102.991,13.125,103.583,14.63,103.256,13.908z"/>
		</g>
		<circle style="fill:#D5742A;" cx="70.669" cy="48.445" r="18"/>
		<g>
			<path style="fill:#211A18;" d="M76.473,50.637c0.004,1.967-1.584,3.565-3.551,3.569l0,0c-1.967,0.007-3.566-1.584-3.572-3.55
				l-0.018-6.233c-0.006-1.967,1.586-3.566,3.553-3.572l0,0c1.967-0.004,3.564,1.586,3.57,3.553L76.473,50.637z"/>
			<path style="fill:#211A18;" d="M109.758,50.545c0.006,1.967-1.586,3.566-3.551,3.571l0,0c-1.969,0.006-3.566-1.585-3.574-3.551
				l-0.016-6.232c-0.006-1.968,1.584-3.566,3.551-3.571l0,0c1.969-0.007,3.568,1.583,3.572,3.55L109.758,50.545z"/>
		</g>
		<g>
			<path style="fill:#FFFBF5;" d="M89.546,56.998c-13.77,0.071-24.998,7.612-24.998,16.905c0,9.295,11.229,16.834,24.998,16.907
				V56.998z"/>
			<path style="fill:#F4E8D7;" d="M89.546,56.998c13.77,0.071,24.998,7.612,24.998,16.905c0,9.295-11.229,16.834-24.998,16.907
				V56.998z"/>
		</g>
		<g>
			<path style="fill:#FAAAA9;" d="M89.546,52.953c-4.854,0.176-8.711,2.972-8.711,6.396c0,3.425,3.857,6.222,8.711,6.396V52.953z"/>
			<path style="fill:#FC9797;" d="M89.546,52.953c4.854,0.176,8.711,2.972,8.711,6.396c0,3.425-3.857,6.222-8.711,6.396V52.953z"/>
		</g>
	</g>
</g>
<g>
</g>
<g>
</g>
<g>
</g>
<g>
</g>
<g>
</g>
<g>
</g>
<g>
</g>
<g>
</g>
<g>
</g>
<g>
</g>
<g>
</g>
<g>
</g>
<g>
</g>
<g>
</g>
<g>
</g>
</svg>
